<svg width="84" height="23" viewBox="0 0 84 23" fill="none" xmlns="http://www.w3.org/2000/svg">
<path d="M81.5305 5.26729C82.3668 5.26729 83.1665 5.26729 83.9995 5.26729C83.4757 7.78028 82.9593 10.2621 82.4398 12.744C82.253 13.636 82.0823 14.5313 81.8676 15.4159C81.5488 16.7351 80.6009 17.5102 79.2773 17.5767C77.899 17.6465 76.7847 16.9681 76.3543 15.6874C75.9217 14.4025 75.576 13.0875 75.196 11.7854C74.9663 10.9964 74.7645 10.1988 74.5015 9.42161C74.4295 9.20799 74.1826 9.05234 74.0163 8.86985C73.852 9.05556 73.603 9.21551 73.5375 9.4302C72.9342 11.4301 72.3792 13.445 71.7781 15.4459C71.2725 17.128 69.819 17.9299 68.1379 17.478C67.145 17.2118 66.4333 16.5763 66.2132 15.5758C65.4618 12.1579 64.7651 8.72708 64.0352 5.2426C64.8209 5.2426 65.5681 5.2265 66.312 5.26085C66.4215 5.26622 66.5814 5.49809 66.6136 5.64837C67.2287 8.53063 67.8288 11.4161 68.4321 14.3016C68.4503 14.3885 68.445 14.4948 68.4933 14.5603C68.6382 14.7546 68.8056 14.9339 68.9634 15.1196C69.1384 14.9457 69.4089 14.8008 69.4733 14.5914C69.9027 13.2099 70.287 11.8154 70.6864 10.4253C70.8646 9.80699 71.032 9.18652 71.2274 8.57357C71.6568 7.22315 72.7249 6.40087 74.0259 6.40087C75.4042 6.3998 76.3661 7.11902 76.803 8.55747C77.3902 10.4876 77.9366 12.4305 78.5001 14.3682C78.5356 14.4884 78.5409 14.6376 78.6171 14.7192C78.7621 14.8727 78.9413 15.0734 79.1206 15.0884C79.243 15.0992 79.4673 14.8491 79.5113 14.6795C79.7035 13.9366 79.8516 13.182 80.0084 12.4305C80.4861 10.1398 80.9605 7.84791 81.4382 5.55713C81.4575 5.47018 81.4919 5.38752 81.5305 5.26729Z" fill="#E57128"/>
<path d="M25.9051 14.8597C26.9636 15.565 28.0349 15.7034 29.1674 15.5628C30.725 15.3707 31.7534 14.4453 32.0464 12.8995C32.2665 11.7413 32.2322 10.5873 31.8339 9.46337C31.5419 8.64109 30.9805 8.05927 30.1657 7.75655C29.0171 7.32931 27.8406 7.30784 26.707 7.76728C25.3351 8.32334 24.764 9.47195 24.7458 10.8793C24.7093 13.6681 24.7308 16.4592 24.7297 19.248C24.7286 20.4246 24.7297 21.6021 24.7297 22.8152C23.9096 22.8152 23.1313 22.8152 22.3026 22.8152C22.2929 22.6778 22.2736 22.5243 22.2736 22.3707C22.2725 18.6158 22.2446 14.8597 22.294 11.1047C22.3058 10.247 22.4518 9.33884 22.7663 8.54555C23.6423 6.3342 25.4028 5.22746 27.729 5.04604C28.5212 4.98378 29.3488 5.02887 30.1249 5.18989C32.5499 5.69334 34.1386 7.49248 34.5025 10.0119C34.6882 11.299 34.684 12.5807 34.3673 13.8463C33.764 16.2616 31.689 17.9631 29.1899 18.1198C28.1981 18.1821 27.2212 18.1016 26.2937 17.728C26.1284 17.6614 25.9309 17.4274 25.9223 17.2621C25.8826 16.4989 25.9051 15.7292 25.9051 14.8597Z" fill="#E57128"/>
<path d="M19.7873 17.5735C19.0466 17.5735 18.2801 17.5735 17.4385 17.5735C17.4385 17.3706 17.4385 17.1816 17.4385 16.9927C17.4385 15.0787 17.4536 13.1658 17.4289 11.2518C17.4224 10.7398 17.3548 10.2127 17.2131 9.72211C16.9082 8.67119 16.2008 7.96699 15.1467 7.65354C14.1999 7.37229 13.2359 7.37122 12.2902 7.64817C11.1469 7.98417 10.4417 8.76887 10.1593 9.91641C9.91566 10.904 9.9103 11.9045 10.1572 12.891C10.4717 14.1459 11.2661 14.9392 12.5371 15.2408C13.7533 15.5296 14.8504 15.3686 16.2599 14.6579C16.2599 15.5188 16.2706 16.3486 16.2459 17.1784C16.2427 17.2815 16.0666 17.4253 15.941 17.4726C12.5757 18.7478 7.87071 17.2761 7.58409 12.2083C7.53149 11.2743 7.58731 10.3029 7.78698 9.39041C8.34196 6.85488 10.3687 5.19852 12.9686 5.03106C14.2503 4.9484 15.5084 5.04179 16.6839 5.62254C18.4519 6.49527 19.6112 7.93586 19.7443 9.86489C19.9193 12.4058 19.7873 14.9671 19.7873 17.5735Z" fill="#E57128"/>
<path d="M50.7811 11.43C50.7983 9.33569 51.335 7.46141 53.1041 6.14319C56.1646 3.86315 61.0993 4.96667 62.542 8.29228C63.4362 10.3523 63.4502 12.4949 62.5292 14.5442C61.4482 16.9487 59.3957 17.8569 56.8677 17.8268C53.0869 17.7817 50.7929 15.3568 50.7811 11.43ZM56.9847 7.47322C55.0643 7.46893 53.7772 8.2955 53.4508 9.92824C53.2802 10.7838 53.2641 11.7123 53.3907 12.5765C53.6258 14.1802 54.5458 15.039 56.1291 15.2924C56.6509 15.3761 57.2037 15.375 57.7297 15.3085C59.2969 15.1109 60.3103 14.1556 60.5658 12.6087C60.6688 11.9829 60.6914 11.3227 60.6238 10.6926C60.3897 8.51878 59.1853 7.47859 56.9847 7.47322Z" fill="#E57128"/>
<path d="M39.0547 6.40375C40.8324 6.40375 42.6154 6.40375 44.4414 6.40375C44.4414 7.23247 44.4414 8.02254 44.4414 8.85985C42.6519 8.85985 40.871 8.85985 39.0322 8.85985C39.0322 11.7722 39.0322 14.6394 39.0322 17.5474C38.1841 17.5474 37.3941 17.5474 36.5493 17.5474C36.5493 17.381 36.5493 17.2254 36.5493 17.0697C36.5493 13.5123 36.545 9.95371 36.5514 6.39624C36.5546 4.82683 36.9743 3.39697 38.0382 2.20112C39.0934 1.01602 40.4481 0.432049 42.0025 0.322555C42.8516 0.262441 43.7093 0.311821 44.5938 0.311821C44.5938 1.12336 44.5938 1.90055 44.5938 2.74752C44.0088 2.74752 43.4398 2.72283 42.8752 2.75503C42.3438 2.78509 41.7953 2.80441 41.2897 2.94933C39.8062 3.37657 38.9012 4.79784 39.0547 6.40375Z" fill="#E57128"/>
<path d="M49.0722 22.9289C48.3412 22.9289 47.6305 22.9493 46.9242 22.9052C46.8243 22.8988 46.6698 22.5725 46.6687 22.3932C46.6504 20.1056 46.6547 17.8181 46.6547 15.5294C46.6547 10.6323 46.6569 5.73512 46.658 0.83796C46.658 0.681234 46.658 0.523434 46.658 0.331284C47.4813 0.331284 48.2585 0.331284 49.0722 0.331284C49.0722 7.83912 49.0722 15.3502 49.0722 22.9289Z" fill="#E57128"/>
<path d="M6.35181 17.5503C3.0627 17.8402 0.174002 15.4442 0.0677291 12.1808C-0.047132 8.62765 0.0215699 5.06803 0.0097618 1.51055C0.00868833 1.12303 0.0097618 0.734437 0.0097618 0.321152C0.834185 0.321152 1.59635 0.321152 2.42506 0.321152C2.42506 1.93887 2.42506 3.55336 2.42506 5.22046C3.73148 5.22046 4.97348 5.22046 6.25198 5.22046C6.25198 6.06313 6.25198 6.85321 6.25198 7.70125C4.98529 7.70125 3.74328 7.70125 2.54959 7.70125C2.54959 9.32648 2.42292 10.9055 2.58501 12.4546C2.74925 14.0175 4.0299 14.9998 5.63366 15.1135C5.86231 15.1296 6.09096 15.1393 6.35074 15.1533C6.35181 15.9584 6.35181 16.7356 6.35181 17.5503Z" fill="#E57128"/>
<path d="M7.99634 3.45278C10.9258 0.554412 17.0178 0.743343 19.5919 3.49464C19.1915 3.8199 18.7933 4.14302 18.409 4.45432C15.2562 2.37931 12.3128 2.41903 9.00969 4.57133C8.68121 4.20957 8.34736 3.84137 7.99634 3.45278Z" fill="#E57128"/>
<path d="M53.2678 20.5652C53.2818 20.5169 53.2829 20.4976 53.2925 20.4836C53.5394 20.1337 53.7198 19.6334 54.0568 19.481C54.3563 19.3458 54.8362 19.5755 55.2269 19.6817C57.5445 20.3151 61.5046 19.2921 62.9849 16.9401C63.0224 16.88 63.0632 16.821 63.1276 16.7254C63.5849 17.0249 63.9993 17.2954 64.4104 17.5638C62.724 20.8357 56.7298 22.651 53.2678 20.5652Z" fill="#E57128"/>
</svg>
