<svg width="25" height="28" viewBox="0 0 25 28" fill="none" xmlns="http://www.w3.org/2000/svg">
<path d="M24.25 12.0667V7.33332C22.0333 7.33332 20.3417 6.74165 19.25 5.59165C18.1296 4.27919 17.5019 2.61711 17.475 0.891651V0.549984L13 0.44165V19.6666C12.8465 20.5054 12.4393 21.277 11.8335 21.877C11.2276 22.4771 10.4522 22.8768 9.61195 23.0222C8.77171 23.1676 7.90708 23.0517 7.13479 22.6902C6.3625 22.3286 5.71973 21.7388 5.29326 21.0004C4.86679 20.262 4.67716 19.4105 4.74995 18.5609C4.82274 17.7113 5.15447 16.9044 5.70034 16.2493C6.2462 15.5942 6.97993 15.1223 7.80247 14.8974C8.62501 14.6725 9.49675 14.7054 10.3 14.9917V10.4083C9.83166 10.3316 9.35792 10.2926 8.88334 10.2916C7.17582 10.2916 5.50666 10.798 4.08691 11.7466C2.66717 12.6953 1.56061 14.0436 0.907177 15.6212C0.253741 17.1987 0.0827719 18.9346 0.415891 20.6093C0.74901 22.284 1.57126 23.8223 2.77865 25.0297C3.98604 26.2371 5.52435 27.0593 7.19906 27.3924C8.87376 27.7255 10.6096 27.5546 12.1872 26.9011C13.7647 26.2477 15.113 25.1411 16.0617 23.7214C17.0103 22.3017 17.5167 20.6325 17.5167 18.925C17.5157 18.5712 17.4935 18.2178 17.45 17.8666V10.2417C19.4849 11.5124 21.8523 12.1478 24.25 12.0667Z" fill="black"/>
</svg>
