<svg width="38" height="32" viewBox="0 0 38 32" fill="none" xmlns="http://www.w3.org/2000/svg">
<path d="M37.5683 4.44879C36.2015 5.05599 34.7331 5.46439 33.1919 5.64879C34.7659 4.70599 35.9727 3.21359 36.5411 1.43399C35.0699 2.30679 33.4391 2.94079 31.7019 3.28359C30.3123 1.80239 28.3327 0.876787 26.1415 0.876787C21.2983 0.811987 17.5747 5.54359 18.7207 10.2308C12.3891 9.91359 6.77588 6.87999 3.01668 2.26919C0.965085 5.61479 2.12988 10.3992 5.37508 12.4416C4.12668 12.4016 2.95108 12.0588 1.92428 11.4888C1.87668 15.2108 4.51709 18.3532 8.03588 19.0544C6.95468 19.356 5.70908 19.4032 4.59508 19.1856C5.56508 22.212 8.37868 24.416 11.7123 24.4772C8.69829 26.8856 4.47868 28.1412 0.431885 27.6324C16.7047 37.6472 34.6939 24.5264 33.7651 8.39199C35.2543 7.31679 36.5471 5.97559 37.5683 4.44879Z" fill="black"/>
</svg>
