<svg width="37" height="26" viewBox="0 0 37 26" fill="none" xmlns="http://www.w3.org/2000/svg">
<path d="M36.8332 9.18334C36.9156 6.79776 36.3939 4.43003 35.3165 2.3C34.5856 1.426 33.5711 0.836187 32.4499 0.633337C27.8124 0.212546 23.1558 0.0400775 18.4999 0.116671C13.861 0.0366012 9.22106 0.203504 4.59988 0.616671C3.68625 0.782865 2.84075 1.21141 2.16655 1.85C0.666549 3.23334 0.499882 5.6 0.333215 7.6C0.0914022 11.1959 0.0914022 14.8041 0.333215 18.4C0.381432 19.5257 0.549038 20.6431 0.833215 21.7333C1.03417 22.5751 1.44075 23.3539 2.01655 24C2.69533 24.6724 3.56052 25.1253 4.49988 25.3C8.09308 25.7435 11.7136 25.9273 15.3332 25.85C21.1665 25.9333 26.2832 25.85 32.3332 25.3833C33.2956 25.2194 34.1852 24.7659 34.8832 24.0833C35.3498 23.6165 35.6983 23.0452 35.8999 22.4167C36.4959 20.5877 36.7887 18.6735 36.7665 16.75C36.8332 15.8167 36.8332 10.1833 36.8332 9.18334ZM14.7332 17.75V7.43334L24.5999 12.6167C21.8332 14.15 18.1832 15.8833 14.7332 17.75Z" fill="black"/>
</svg>
